# Blender 4.2.1 LTS
# www.blender.org
mtllib sphere.mtl
o Sphere
v 0.000000 0.707107 -0.707107
v 0.000000 0.258819 -0.965926
v 0.000000 -0.258819 -0.965926
v 0.000000 -0.500000 -0.866025
v 0.129410 0.965926 -0.224144
v 0.250000 0.866025 -0.433013
v 0.353553 0.707107 -0.612372
v 0.433013 0.500000 -0.750000
v 0.482963 0.258819 -0.836516
v 0.500000 0.000000 -0.866025
v 0.482963 -0.258819 -0.836516
v 0.433013 -0.500000 -0.750000
v 0.353553 -0.707107 -0.612372
v 0.250000 -0.866025 -0.433013
v 0.129410 -0.965926 -0.224144
v 0.224144 0.965926 -0.129410
v 0.433013 0.866025 -0.250000
v 0.612372 0.707107 -0.353553
v 0.750000 0.500000 -0.433013
v 0.836516 0.258819 -0.482963
v 0.866025 0.000000 -0.500000
v 0.836516 -0.258819 -0.482963
v 0.750000 -0.500000 -0.433013
v 0.612372 -0.707107 -0.353553
v 0.433013 -0.866025 -0.250000
v 0.224144 -0.965926 -0.129410
v 0.258819 0.965926 0.000000
v 0.500000 0.866025 0.000000
v 0.707107 0.707107 0.000000
v 0.866025 0.500000 0.000000
v 0.965926 0.258819 0.000000
v 1.000000 0.000000 0.000000
v 0.965926 -0.258819 0.000000
v 0.866025 -0.500000 0.000000
v 0.707107 -0.707107 0.000000
v 0.500000 -0.866025 0.000000
v 0.258819 -0.965926 0.000000
v 0.224144 0.965926 0.129410
v 0.433013 0.866025 0.250000
v 0.612372 0.707107 0.353553
v 0.750000 0.500000 0.433013
v 0.836516 0.258819 0.482963
v 0.866025 0.000000 0.500000
v 0.836516 -0.258819 0.482963
v 0.750000 -0.500000 0.433013
v 0.612372 -0.707107 0.353553
v 0.433013 -0.866025 0.250000
v 0.224144 -0.965926 0.129410
v 0.129410 0.965926 0.224144
v 0.250000 0.866025 0.433013
v 0.353553 0.707107 0.612372
v 0.433013 0.500000 0.750000
v 0.482963 0.258819 0.836516
v 0.500000 0.000000 0.866025
v 0.482963 -0.258819 0.836516
v 0.433013 -0.500000 0.750000
v 0.353553 -0.707107 0.612372
v 0.250000 -0.866025 0.433013
v 0.129410 -0.965926 0.224144
v 0.000000 0.965926 0.258819
v 0.000000 0.866025 0.500000
v -0.000000 0.707107 0.707107
v -0.000000 0.500000 0.866025
v -0.000000 0.258819 0.965926
v 0.000000 0.000000 1.000000
v -0.000000 -0.258819 0.965926
v -0.000000 -0.500000 0.866025
v -0.000000 -0.707107 0.707107
v 0.000000 -0.866025 0.500000
v 0.000000 -0.965926 0.258819
v -0.129410 0.965926 0.224144
v -0.250000 0.866025 0.433013
v -0.353553 0.707107 0.612372
v -0.433013 0.500000 0.750000
v -0.482963 0.258819 0.836516
v -0.500000 0.000000 0.866025
v -0.482963 -0.258819 0.836516
v -0.433013 -0.500000 0.750000
v -0.353553 -0.707107 0.612372
v -0.250000 -0.866025 0.433013
v -0.129410 -0.965926 0.224144
v -0.224144 0.965926 0.129410
v -0.433013 0.866025 0.250000
v -0.612372 0.707107 0.353553
v -0.750000 0.500000 0.433013
v -0.836516 0.258819 0.482963
v -0.866025 0.000000 0.500000
v -0.836516 -0.258819 0.482963
v -0.750000 -0.500000 0.433013
v -0.612372 -0.707107 0.353553
v -0.433013 -0.866025 0.250000
v -0.224144 -0.965926 0.129410
v 0.000000 1.000000 0.000000
v -0.258819 0.965926 0.000000
v -0.500000 0.866025 0.000000
v -0.707107 0.707107 -0.000000
v -0.866025 0.500000 -0.000000
v -0.965926 0.258819 -0.000000
v -1.000000 0.000000 0.000000
v -0.965926 -0.258819 -0.000000
v -0.866025 -0.500000 -0.000000
v -0.707107 -0.707107 -0.000000
v -0.500000 -0.866025 0.000000
v -0.258819 -0.965926 0.000000
v -0.224144 0.965926 -0.129410
v -0.433013 0.866025 -0.250000
v -0.612372 0.707107 -0.353553
v -0.750000 0.500000 -0.433013
v -0.836516 0.258819 -0.482963
v -0.866025 0.000000 -0.500000
v -0.836516 -0.258819 -0.482963
v -0.750000 -0.500000 -0.433013
v -0.612372 -0.707107 -0.353553
v -0.433013 -0.866025 -0.250000
v -0.224144 -0.965926 -0.129410
v -0.129410 0.965926 -0.224144
v -0.250000 0.866025 -0.433013
v -0.353553 0.707107 -0.612372
v -0.433013 0.500000 -0.750000
v -0.482963 0.258819 -0.836516
v -0.500000 0.000000 -0.866025
v -0.482963 -0.258819 -0.836516
v -0.433013 -0.500000 -0.750000
v -0.353553 -0.707107 -0.612372
v -0.250000 -0.866025 -0.433013
v -0.129410 -0.965926 -0.224144
v 0.000000 0.965926 -0.258819
v 0.000000 0.866025 -0.500000
v 0.000000 0.500000 -0.866025
v 0.000000 0.000000 -1.000000
v 0.000000 -0.707107 -0.707107
v 0.000000 -0.866025 -0.500000
v 0.000000 -0.965926 -0.258819
v 0.000000 -1.000000 0.000000
vn 0.2568 0.1262 -0.9582
vn 0.1610 0.7830 -0.6008
vn 0.1610 -0.7830 -0.6008
vn 0.2568 -0.1262 -0.9582
vn 0.2079 0.5955 -0.7760
vn 0.1020 -0.9191 -0.3807
vn 0.0350 0.9908 -0.1304
vn 0.2403 -0.3715 -0.8968
vn 0.2403 0.3715 -0.8968
vn 0.0350 -0.9908 -0.1304
vn 0.1020 0.9191 -0.3807
vn 0.2079 -0.5955 -0.7760
vn 0.2787 -0.9191 -0.2787
vn 0.0955 0.9908 -0.0955
vn 0.6565 -0.3715 -0.6565
vn 0.6565 0.3715 -0.6565
vn 0.0955 -0.9908 -0.0955
vn 0.2787 0.9191 -0.2787
vn 0.5681 -0.5955 -0.5681
vn 0.7015 0.1262 -0.7015
vn 0.4398 0.7830 -0.4398
vn 0.4398 -0.7830 -0.4398
vn 0.7015 -0.1262 -0.7015
vn 0.5681 0.5955 -0.5681
vn 0.6008 0.7830 -0.1610
vn 0.6008 -0.7830 -0.1610
vn 0.9582 -0.1262 -0.2568
vn 0.7760 0.5955 -0.2079
vn 0.3807 -0.9191 -0.1020
vn 0.1304 0.9908 -0.0350
vn 0.8968 -0.3715 -0.2403
vn 0.8968 0.3715 -0.2403
vn 0.1304 -0.9908 -0.0350
vn 0.3807 0.9191 -0.1020
vn 0.7760 -0.5955 -0.2079
vn 0.9582 0.1262 -0.2568
vn 0.1304 -0.9908 0.0350
vn 0.3807 0.9191 0.1020
vn 0.7760 -0.5955 0.2079
vn 0.9582 0.1262 0.2568
vn 0.6008 0.7830 0.1610
vn 0.6008 -0.7830 0.1610
vn 0.9582 -0.1262 0.2568
vn 0.7760 0.5955 0.2079
vn 0.3807 -0.9191 0.1020
vn 0.1304 0.9908 0.0350
vn 0.8968 -0.3715 0.2403
vn 0.8968 0.3715 0.2403
vn 0.5681 0.5955 0.5681
vn 0.2787 -0.9191 0.2787
vn 0.0955 0.9908 0.0955
vn 0.6565 -0.3715 0.6565
vn 0.6565 0.3715 0.6565
vn 0.0955 -0.9908 0.0955
vn 0.2787 0.9191 0.2787
vn 0.5681 -0.5955 0.5681
vn 0.7015 0.1262 0.7015
vn 0.4398 0.7830 0.4398
vn 0.4398 -0.7830 0.4398
vn 0.7015 -0.1262 0.7015
vn 0.1610 0.7830 0.6008
vn 0.1610 -0.7830 0.6008
vn 0.2568 -0.1262 0.9582
vn 0.2079 0.5955 0.7760
vn 0.1020 -0.9191 0.3807
vn 0.0350 0.9908 0.1304
vn 0.2403 -0.3715 0.8968
vn 0.2403 0.3715 0.8968
vn 0.0350 -0.9908 0.1304
vn 0.1020 0.9191 0.3807
vn 0.2079 -0.5955 0.7760
vn 0.2568 0.1262 0.9582
vn -0.2403 0.3715 0.8968
vn -0.0350 -0.9908 0.1304
vn -0.1020 0.9191 0.3807
vn -0.2079 -0.5955 0.7760
vn -0.2568 0.1262 0.9582
vn -0.1610 0.7830 0.6008
vn -0.1610 -0.7830 0.6008
vn -0.2568 -0.1262 0.9582
vn -0.2079 0.5955 0.7760
vn -0.1020 -0.9191 0.3807
vn -0.0350 0.9908 0.1304
vn -0.2403 -0.3715 0.8968
vn -0.5681 0.5955 0.5681
vn -0.2787 -0.9191 0.2787
vn -0.0955 0.9908 0.0955
vn -0.6565 -0.3715 0.6565
vn -0.6565 0.3715 0.6565
vn -0.0955 -0.9908 0.0955
vn -0.2787 0.9191 0.2787
vn -0.5681 -0.5955 0.5681
vn -0.7015 0.1262 0.7015
vn -0.4398 0.7830 0.4398
vn -0.4398 -0.7830 0.4398
vn -0.7015 -0.1262 0.7015
vn -0.9582 0.1262 0.2568
vn -0.6008 0.7830 0.1610
vn -0.6008 -0.7830 0.1610
vn -0.9582 -0.1262 0.2568
vn -0.7760 0.5955 0.2079
vn -0.3807 -0.9191 0.1020
vn -0.1304 0.9908 0.0350
vn -0.8968 -0.3715 0.2403
vn -0.8968 0.3715 0.2403
vn -0.1304 -0.9908 0.0350
vn -0.3807 0.9191 0.1020
vn -0.7760 -0.5955 0.2079
vn -0.8968 0.3715 -0.2403
vn -0.1304 -0.9908 -0.0350
vn -0.3807 0.9191 -0.1020
vn -0.7760 -0.5955 -0.2079
vn -0.9582 0.1262 -0.2568
vn -0.6008 0.7830 -0.1610
vn -0.6008 -0.7830 -0.1610
vn -0.9582 -0.1262 -0.2568
vn -0.7760 0.5955 -0.2079
vn -0.3807 -0.9191 -0.1020
vn -0.1304 0.9908 -0.0350
vn -0.8968 -0.3715 -0.2403
vn -0.7015 -0.1262 -0.7015
vn -0.5681 0.5955 -0.5681
vn -0.2787 -0.9191 -0.2787
vn -0.0955 0.9908 -0.0955
vn -0.6565 -0.3715 -0.6565
vn -0.6565 0.3715 -0.6565
vn -0.0955 -0.9908 -0.0955
vn -0.2787 0.9191 -0.2787
vn -0.5681 -0.5955 -0.5681
vn -0.7015 0.1262 -0.7015
vn -0.4398 0.7830 -0.4398
vn -0.4398 -0.7830 -0.4398
vn -0.2568 0.1262 -0.9582
vn -0.1610 0.7830 -0.6008
vn -0.1610 -0.7830 -0.6008
vn -0.2568 -0.1262 -0.9582
vn -0.2079 0.5955 -0.7760
vn -0.1020 -0.9191 -0.3807
vn -0.0350 0.9908 -0.1304
vn -0.2403 -0.3715 -0.8968
vn -0.2403 0.3715 -0.8968
vn -0.0350 -0.9908 -0.1304
vn -0.1020 0.9191 -0.3807
vn -0.2079 -0.5955 -0.7760
vt 0.750000 0.500000
vt 0.750000 0.583333
vt 0.666667 0.583333
vt 0.666667 0.500000
vt 0.750000 0.750000
vt 0.750000 0.833333
vt 0.666667 0.833333
vt 0.666667 0.750000
vt 0.750000 0.166667
vt 0.750000 0.250000
vt 0.666667 0.250000
vt 0.666667 0.166667
vt 0.750000 0.416667
vt 0.666667 0.416667
vt 0.750000 0.666667
vt 0.666667 0.666667
vt 0.750000 0.083333
vt 0.666667 0.083333
vt 0.750000 0.916667
vt 0.708333 1.000000
vt 0.666667 0.916667
vt 0.750000 0.333333
vt 0.666667 0.333333
vt 0.708333 0.000000
vt 0.583333 0.166667
vt 0.583333 0.083333
vt 0.625000 1.000000
vt 0.583333 0.916667
vt 0.583333 0.416667
vt 0.583333 0.333333
vt 0.583333 0.666667
vt 0.583333 0.583333
vt 0.625000 0.000000
vt 0.583333 0.833333
vt 0.583333 0.250000
vt 0.583333 0.500000
vt 0.583333 0.750000
vt 0.500000 0.833333
vt 0.500000 0.750000
vt 0.500000 0.250000
vt 0.500000 0.166667
vt 0.500000 0.500000
vt 0.500000 0.416667
vt 0.500000 0.666667
vt 0.500000 0.083333
vt 0.541667 1.000000
vt 0.500000 0.916667
vt 0.500000 0.333333
vt 0.500000 0.583333
vt 0.541667 0.000000
vt 0.458333 0.000000
vt 0.416667 0.083333
vt 0.416667 0.916667
vt 0.416667 0.833333
vt 0.416667 0.333333
vt 0.416667 0.250000
vt 0.416667 0.583333
vt 0.416667 0.500000
vt 0.416667 0.750000
vt 0.416667 0.166667
vt 0.416667 0.416667
vt 0.416667 0.666667
vt 0.458333 1.000000
vt 0.333333 0.750000
vt 0.333333 0.666667
vt 0.333333 0.166667
vt 0.333333 0.083333
vt 0.375000 1.000000
vt 0.333333 0.916667
vt 0.333333 0.416667
vt 0.333333 0.333333
vt 0.333333 0.583333
vt 0.375000 0.000000
vt 0.333333 0.833333
vt 0.333333 0.250000
vt 0.333333 0.500000
vt 0.250000 0.833333
vt 0.250000 0.750000
vt 0.250000 0.250000
vt 0.250000 0.166667
vt 0.250000 0.500000
vt 0.250000 0.416667
vt 0.250000 0.666667
vt 0.250000 0.083333
vt 0.291667 1.000000
vt 0.250000 0.916667
vt 0.250000 0.333333
vt 0.250000 0.583333
vt 0.291667 0.000000
vt 0.166667 0.666667
vt 0.166667 0.583333
vt 0.208333 0.000000
vt 0.166667 0.083333
vt 0.166667 0.916667
vt 0.166667 0.833333
vt 0.166667 0.333333
vt 0.166667 0.250000
vt 0.166667 0.500000
vt 0.166667 0.750000
vt 0.166667 0.166667
vt 0.166667 0.416667
vt 0.208333 1.000000
vt 0.083333 0.750000
vt 0.083333 0.666667
vt 0.083333 0.166667
vt 0.083333 0.083333
vt 0.125000 1.000000
vt 0.083333 0.916667
vt 0.083333 0.416667
vt 0.083333 0.333333
vt 0.083333 0.583333
vt 0.125000 0.000000
vt 0.083333 0.833333
vt 0.083333 0.250000
vt 0.083333 0.500000
vt 0.000000 0.583333
vt 0.000000 0.500000
vt 0.000000 0.833333
vt 0.000000 0.750000
vt 0.000000 0.250000
vt 0.000000 0.166667
vt 0.000000 0.416667
vt 0.000000 0.666667
vt 0.000000 0.083333
vt 0.041667 1.000000
vt 0.000000 0.916667
vt 0.000000 0.333333
vt 0.041667 0.000000
vt 1.000000 0.583333
vt 1.000000 0.666667
vt 0.916667 0.666667
vt 0.916667 0.583333
vt 0.958333 0.000000
vt 1.000000 0.083333
vt 0.916667 0.083333
vt 1.000000 0.833333
vt 1.000000 0.916667
vt 0.916667 0.916667
vt 0.916667 0.833333
vt 1.000000 0.250000
vt 1.000000 0.333333
vt 0.916667 0.333333
vt 0.916667 0.250000
vt 1.000000 0.500000
vt 0.916667 0.500000
vt 1.000000 0.750000
vt 0.916667 0.750000
vt 1.000000 0.166667
vt 0.916667 0.166667
vt 1.000000 0.416667
vt 0.916667 0.416667
vt 0.958333 1.000000
vt 0.833333 0.500000
vt 0.833333 0.416667
vt 0.833333 0.750000
vt 0.833333 0.666667
vt 0.833333 0.166667
vt 0.833333 0.083333
vt 0.875000 1.000000
vt 0.833333 0.916667
vt 0.833333 0.333333
vt 0.833333 0.583333
vt 0.875000 0.000000
vt 0.833333 0.833333
vt 0.833333 0.250000
vt 0.791667 1.000000
vt 0.791667 0.000000
s 0
usemtl Material.004
f 130/1/1 2/2/1 9/3/1 10/4/1
f 1/5/2 128/6/2 6/7/2 7/8/2
f 132/9/3 131/10/3 13/11/3 14/12/3
f 3/13/4 130/1/4 10/4/4 11/14/4
f 129/15/5 1/5/5 7/8/5 8/16/5
f 133/17/6 132/9/6 14/12/6 15/18/6
f 127/19/7 93/20/7 5/21/7
f 4/22/8 3/13/8 11/14/8 12/23/8
f 2/2/9 129/15/9 8/16/9 9/3/9
f 134/24/10 133/17/10 15/18/10
f 128/6/11 127/19/11 5/21/11 6/7/11
f 131/10/12 4/22/12 12/23/12 13/11/12
f 15/18/13 14/12/13 25/25/13 26/26/13
f 5/21/14 93/27/14 16/28/14
f 12/23/15 11/14/15 22/29/15 23/30/15
f 9/3/16 8/16/16 19/31/16 20/32/16
f 134/33/17 15/18/17 26/26/17
f 6/7/18 5/21/18 16/28/18 17/34/18
f 13/11/19 12/23/19 23/30/19 24/35/19
f 10/4/20 9/3/20 20/32/20 21/36/20
f 7/8/21 6/7/21 17/34/21 18/37/21
f 14/12/22 13/11/22 24/35/22 25/25/22
f 11/14/23 10/4/23 21/36/23 22/29/23
f 8/16/24 7/8/24 18/37/24 19/31/24
f 18/37/25 17/34/25 28/38/25 29/39/25
f 25/25/26 24/35/26 35/40/26 36/41/26
f 22/29/27 21/36/27 32/42/27 33/43/27
f 19/31/28 18/37/28 29/39/28 30/44/28
f 26/26/29 25/25/29 36/41/29 37/45/29
f 16/28/30 93/46/30 27/47/30
f 23/30/31 22/29/31 33/43/31 34/48/31
f 20/32/32 19/31/32 30/44/32 31/49/32
f 134/50/33 26/26/33 37/45/33
f 17/34/34 16/28/34 27/47/34 28/38/34
f 24/35/35 23/30/35 34/48/35 35/40/35
f 21/36/36 20/32/36 31/49/36 32/42/36
f 134/51/37 37/45/37 48/52/37
f 28/38/38 27/47/38 38/53/38 39/54/38
f 35/40/39 34/48/39 45/55/39 46/56/39
f 32/42/40 31/49/40 42/57/40 43/58/40
f 29/39/41 28/38/41 39/54/41 40/59/41
f 36/41/42 35/40/42 46/56/42 47/60/42
f 33/43/43 32/42/43 43/58/43 44/61/43
f 30/44/44 29/39/44 40/59/44 41/62/44
f 37/45/45 36/41/45 47/60/45 48/52/45
f 27/47/46 93/63/46 38/53/46
f 34/48/47 33/43/47 44/61/47 45/55/47
f 31/49/48 30/44/48 41/62/48 42/57/48
f 41/62/49 40/59/49 51/64/49 52/65/49
f 48/52/50 47/60/50 58/66/50 59/67/50
f 38/53/51 93/68/51 49/69/51
f 45/55/52 44/61/52 55/70/52 56/71/52
f 42/57/53 41/62/53 52/65/53 53/72/53
f 134/73/54 48/52/54 59/67/54
f 39/54/55 38/53/55 49/69/55 50/74/55
f 46/56/56 45/55/56 56/71/56 57/75/56
f 43/58/57 42/57/57 53/72/57 54/76/57
f 40/59/58 39/54/58 50/74/58 51/64/58
f 47/60/59 46/56/59 57/75/59 58/66/59
f 44/61/60 43/58/60 54/76/60 55/70/60
f 51/64/61 50/74/61 61/77/61 62/78/61
f 58/66/62 57/75/62 68/79/62 69/80/62
f 55/70/63 54/76/63 65/81/63 66/82/63
f 52/65/64 51/64/64 62/78/64 63/83/64
f 59/67/65 58/66/65 69/80/65 70/84/65
f 49/69/66 93/85/66 60/86/66
f 56/71/67 55/70/67 66/82/67 67/87/67
f 53/72/68 52/65/68 63/83/68 64/88/68
f 134/89/69 59/67/69 70/84/69
f 50/74/70 49/69/70 60/86/70 61/77/70
f 57/75/71 56/71/71 67/87/71 68/79/71
f 54/76/72 53/72/72 64/88/72 65/81/72
f 64/88/73 63/83/73 74/90/73 75/91/73
f 134/92/74 70/84/74 81/93/74
f 61/77/75 60/86/75 71/94/75 72/95/75
f 68/79/76 67/87/76 78/96/76 79/97/76
f 65/81/77 64/88/77 75/91/77 76/98/77
f 62/78/78 61/77/78 72/95/78 73/99/78
f 69/80/79 68/79/79 79/97/79 80/100/79
f 66/82/80 65/81/80 76/98/80 77/101/80
f 63/83/81 62/78/81 73/99/81 74/90/81
f 70/84/82 69/80/82 80/100/82 81/93/82
f 60/86/83 93/102/83 71/94/83
f 67/87/84 66/82/84 77/101/84 78/96/84
f 74/90/85 73/99/85 84/103/85 85/104/85
f 81/93/86 80/100/86 91/105/86 92/106/86
f 71/94/87 93/107/87 82/108/87
f 78/96/88 77/101/88 88/109/88 89/110/88
f 75/91/89 74/90/89 85/104/89 86/111/89
f 134/112/90 81/93/90 92/106/90
f 72/95/91 71/94/91 82/108/91 83/113/91
f 79/97/92 78/96/92 89/110/92 90/114/92
f 76/98/93 75/91/93 86/111/93 87/115/93
f 73/99/94 72/95/94 83/113/94 84/103/94
f 80/100/95 79/97/95 90/114/95 91/105/95
f 77/101/96 76/98/96 87/115/96 88/109/96
f 87/115/97 86/111/97 98/116/97 99/117/97
f 84/103/98 83/113/98 95/118/98 96/119/98
f 91/105/99 90/114/99 102/120/99 103/121/99
f 88/109/100 87/115/100 99/117/100 100/122/100
f 85/104/101 84/103/101 96/119/101 97/123/101
f 92/106/102 91/105/102 103/121/102 104/124/102
f 82/108/103 93/125/103 94/126/103
f 89/110/104 88/109/104 100/122/104 101/127/104
f 86/111/105 85/104/105 97/123/105 98/116/105
f 134/128/106 92/106/106 104/124/106
f 83/113/107 82/108/107 94/126/107 95/118/107
f 90/114/108 89/110/108 101/127/108 102/120/108
f 98/129/109 97/130/109 108/131/109 109/132/109
f 134/133/110 104/134/110 115/135/110
f 95/136/111 94/137/111 105/138/111 106/139/111
f 102/140/112 101/141/112 112/142/112 113/143/112
f 99/144/113 98/129/113 109/132/113 110/145/113
f 96/146/114 95/136/114 106/139/114 107/147/114
f 103/148/115 102/140/115 113/143/115 114/149/115
f 100/150/116 99/144/116 110/145/116 111/151/116
f 97/130/117 96/146/117 107/147/117 108/131/117
f 104/134/118 103/148/118 114/149/118 115/135/118
f 94/137/119 93/152/119 105/138/119
f 101/141/120 100/150/120 111/151/120 112/142/120
f 111/151/121 110/145/121 121/153/121 122/154/121
f 108/131/122 107/147/122 118/155/122 119/156/122
f 115/135/123 114/149/123 125/157/123 126/158/123
f 105/138/124 93/159/124 116/160/124
f 112/142/125 111/151/125 122/154/125 123/161/125
f 109/132/126 108/131/126 119/156/126 120/162/126
f 134/163/127 115/135/127 126/158/127
f 106/139/128 105/138/128 116/160/128 117/164/128
f 113/143/129 112/142/129 123/161/129 124/165/129
f 110/145/130 109/132/130 120/162/130 121/153/130
f 107/147/131 106/139/131 117/164/131 118/155/131
f 114/149/132 113/143/132 124/165/132 125/157/132
f 121/153/133 120/162/133 2/2/133 130/1/133
f 118/155/134 117/164/134 128/6/134 1/5/134
f 125/157/135 124/165/135 131/10/135 132/9/135
f 122/154/136 121/153/136 130/1/136 3/13/136
f 119/156/137 118/155/137 1/5/137 129/15/137
f 126/158/138 125/157/138 132/9/138 133/17/138
f 116/160/139 93/166/139 127/19/139
f 123/161/140 122/154/140 3/13/140 4/22/140
f 120/162/141 119/156/141 129/15/141 2/2/141
f 134/167/142 126/158/142 133/17/142
f 117/164/143 116/160/143 127/19/143 128/6/143
f 124/165/144 123/161/144 4/22/144 131/10/144
